<?xml version="1.0" encoding="UTF-8" standalone="no"?>
<!-- Created with Inkscape (http://www.inkscape.org/) -->
<svg
   xmlns:dc="http://purl.org/dc/elements/1.1/"
   xmlns:cc="http://web.resource.org/cc/"
   xmlns:rdf="http://www.w3.org/1999/02/22-rdf-syntax-ns#"
   xmlns:svg="http://www.w3.org/2000/svg"
   xmlns="http://www.w3.org/2000/svg"
   xmlns:xlink="http://www.w3.org/1999/xlink"
   xmlns:sodipodi="http://inkscape.sourceforge.net/DTD/sodipodi-0.dtd"
   xmlns:inkscape="http://www.inkscape.org/namespaces/inkscape"
   width="744.09448819"
   height="1052.3622047"
   id="svg2"
   sodipodi:version="0.32"
   inkscape:version="0.43"
   sodipodi:docbase="Z:\projects\ajug-conference\2006\img"
   sodipodi:docname="devcon-logo-2006.svg"
   inkscape:export-filename="Z:\projects\ajug-conference\devcon-logo-2006.png"
   inkscape:export-xdpi="200"
   inkscape:export-ydpi="200">
  <defs
     id="defs4">
    <linearGradient
       inkscape:collect="always"
       xlink:href="#linearGradient631"
       id="linearGradient1383"
       gradientUnits="userSpaceOnUse"
       gradientTransform="matrix(1.008679,0,0,0.991395,-19.6936,-263.5928)"
       x1="465.20277"
       y1="549.29458"
       x2="651.67388"
       y2="549.29458" />
    <linearGradient
       id="linearGradient631">
      <stop
         style="stop-color:#ffaf97;stop-opacity:1;"
         offset="0"
         id="stop632" />
      <stop
         style="stop-color:#ffc78d;stop-opacity:1;"
         offset="1"
         id="stop633" />
    </linearGradient>
    <linearGradient
       xlink:href="#linearGradient631"
       id="linearGradient634"
       gradientTransform="scale(1.008679,0.991395)"
       x1="465.20277"
       y1="549.29458"
       x2="651.67388"
       y2="549.29458"
       gradientUnits="userSpaceOnUse" />
    <linearGradient
       inkscape:collect="always"
       xlink:href="#linearGradient631"
       id="linearGradient3171"
       gradientUnits="userSpaceOnUse"
       gradientTransform="matrix(1.008679,0,0,0.991395,-33.97931,156.4072)"
       x1="465.20277"
       y1="549.29458"
       x2="651.67388"
       y2="549.29458" />
  </defs>
  <sodipodi:namedview
     id="base"
     pagecolor="#ffffff"
     bordercolor="#666666"
     borderopacity="1.0"
     inkscape:pageopacity="0.0"
     inkscape:pageshadow="2"
     inkscape:zoom="0.35"
     inkscape:cx="375"
     inkscape:cy="520"
     inkscape:document-units="px"
     inkscape:current-layer="g1329"
     inkscape:window-width="1103"
     inkscape:window-height="773"
     inkscape:window-x="22"
     inkscape:window-y="29" />
  <metadata
     id="metadata7">
    <rdf:RDF>
      <cc:Work
         rdf:about="">
        <dc:format>image/svg+xml</dc:format>
        <dc:type
           rdf:resource="http://purl.org/dc/dcmitype/StillImage" />
      </cc:Work>
    </rdf:RDF>
  </metadata>
  <g
     inkscape:label="Layer 1"
     inkscape:groupmode="layer"
     id="layer1">
    <g
       inkscape:label="Layer 1"
       id="g1329"
       transform="translate(22.85711,-45.71424)">
      <g
         id="g2264">
        <text
           sodipodi:linespacing="100%"
           transform="scale(0.75091,1.331718)"
           id="text605"
           y="275.52896"
           x="82.970818"
           style="font-size:265.81744385px;font-style:normal;font-weight:normal;line-height:100%;writing-mode:lr-tb;text-anchor:start;fill:#000000;fill-opacity:1;stroke:none;stroke-width:1pt;stroke-linecap:butt;stroke-linejoin:miter;stroke-opacity:1;font-family:Teen"
           xml:space="preserve"><tspan
             id="tspan614"
             sodipodi:role="line"
             y="275.52896"
             x="82.970818">ajug</tspan></text>
        <path
           sodipodi:nodetypes="cssccscsccccc"
           id="path605"
           d="M 482.3124,353.8178 C 516.6482,377.8099 570.813,374.469 581.5984,370.9243 C 595.8546,366.4474 607.219,356.9433 612.1259,352.9772 C 617.0328,349.0112 621.2051,338.9398 622.983,333.3282 C 637.2836,251.1284 601.439,233.5196 603.1049,227.8656 C 598.8993,224.4938 622.9997,234.1926 629.1754,283.0695 C 632.4026,313.6482 626.1744,323.939 631.083,325.9048 C 633.1973,327.0546 640.0593,282.883 636.7485,269.2101 C 629.8442,243.5081 628.4734,238.011 613.9292,219.3609 C 590.9364,194.0707 547.2064,183.6087 521.7342,190.7272 C 496.107,195.2554 461.3315,222.3565 452.4951,263.4094 C 444.8648,293.1637 451.1071,327.9061 482.3124,353.8178 L 482.3124,353.8178 L 482.3124,353.8178 z "
           style="font-size:12px;fill:url(#linearGradient1383);fill-opacity:1;fill-rule:evenodd;stroke:none;stroke-width:2.12918496" />
        <path
           sodipodi:nodetypes="csccccsc"
           id="path612"
           d="M 618.1958,175.7333 C 629.5915,177.3517 640.4508,183.9914 654.529,188.6547 C 675.0873,195.3738 683.0246,192.4773 678.4081,193.6371 C 664.6299,195.2632 658.6615,199.6052 654.6745,200.9887 C 636.8749,210.8848 619.8424,222.7123 595.5818,211.1345 C 579.0163,203.868 576.8287,194.4328 556.1265,191.8178 C 550.9056,189.4343 567.8217,187.7468 575.0591,185.69 C 590.684,181.0554 603.1181,173.0359 618.1958,175.7333 L 618.1958,175.7333 z "
           style="font-size:12px;fill:#00be7e;fill-opacity:1;fill-rule:evenodd;stroke:none;stroke-width:0.375;stroke-linecap:round;stroke-linejoin:bevel" />
        <path
           sodipodi:nodetypes="cccccsc"
           id="path610"
           d="M 558.7836,174.6196 C 555.2567,178.2376 552.9154,180.776 550.6288,183.5201 C 545.9211,188.6867 542.3461,195.8733 542.8349,200.3451 C 543.7363,203.9645 557.1004,206.3867 559.284,199.7342 C 560.6721,192.494 570.4457,184.0465 573.4756,180.5789 C 575.5717,178.2215 574.123,176.0446 568.5194,174.5351 C 564.3557,173.247 560.3043,172.6303 558.7836,174.6196 L 558.7836,174.6196 z "
           style="fill:#906000;fill-opacity:1;fill-rule:evenodd;stroke:none;stroke-width:1pt;stroke-linecap:butt;stroke-linejoin:miter;stroke-opacity:1" />
        <text
           xml:space="preserve"
           sodipodi:linespacing="100%"
           id="text651"
           y="156.04619"
           x="223.76511"
           style="font-size:93.89160919px;font-style:normal;font-weight:normal;line-height:100%;writing-mode:lr-tb;text-anchor:start;fill:#000000;fill-opacity:1;stroke:none;stroke-width:1pt;stroke-linecap:butt;stroke-linejoin:miter;stroke-opacity:1;font-family:Blue Highway Condensed"><tspan
             id="tspan658"
             sodipodi:role="line"
             y="156.04619"
             x="223.76511">Java DevCon 2006</tspan></text>
      </g>
      <text
         sodipodi:linespacing="100%"
         transform="scale(0.75091,1.331718)"
         id="text2275"
         y="590.91113"
         x="63.946301"
         style="font-size:265.81750488px;font-style:normal;font-weight:normal;line-height:100%;writing-mode:lr-tb;text-anchor:start;fill:#ffffff;fill-opacity:1;stroke:none;stroke-width:1pt;stroke-linecap:butt;stroke-linejoin:miter;stroke-opacity:1;font-family:Teen"
         xml:space="preserve"
         inkscape:export-filename="Z:\projects\ajug-conference\2006\img\text2285.png"
         inkscape:export-xdpi="36.84"
         inkscape:export-ydpi="36.84"><tspan
           id="tspan2277"
           sodipodi:role="line"
           y="590.91113"
           x="63.946301">ajug</tspan></text>
      <path
         sodipodi:nodetypes="cssccscsccccc"
         id="path2279"
         d="M 468.02669,773.8178 C 502.36249,797.8099 556.52729,794.469 567.31269,790.9243 C 581.56889,786.4474 592.93329,776.9433 597.84019,772.9772 C 602.74709,769.0112 606.91939,758.9398 608.69729,753.3282 C 622.99789,671.1284 587.15329,653.5196 588.81919,647.8656 C 584.61359,644.4938 608.71399,654.1926 614.88969,703.0695 C 618.11689,733.6482 611.88869,743.939 616.79729,745.9048 C 618.91159,747.0546 625.77359,702.883 622.46279,689.2101 C 615.55849,663.5081 614.18769,658.011 599.64349,639.3609 C 576.65069,614.0707 532.92069,603.6087 507.44849,610.7272 C 481.82129,615.2554 447.04579,642.3565 438.20939,683.4094 C 430.57909,713.1637 436.82139,747.9061 468.02669,773.8178 L 468.02669,773.8178 L 468.02669,773.8178 z "
         style="font-size:12px;fill:url(#linearGradient3171);fill-opacity:1;fill-rule:evenodd;stroke:none;stroke-width:2.12918496"
         inkscape:export-filename="Z:\projects\ajug-conference\2006\img\text2285.png"
         inkscape:export-xdpi="36.84"
         inkscape:export-ydpi="36.84" />
      <path
         sodipodi:nodetypes="csccccsc"
         id="path2281"
         d="M 603.91009,595.7333 C 615.30579,597.3517 626.16509,603.9914 640.24329,608.6547 C 660.80159,615.3738 668.73889,612.4773 664.12239,613.6371 C 650.34419,615.2632 644.37579,619.6052 640.38879,620.9887 C 622.58919,630.8848 605.55669,642.7123 581.29609,631.1345 C 564.73059,623.868 562.54299,614.4328 541.84079,611.8178 C 536.61989,609.4343 553.53599,607.7468 560.77339,605.69 C 576.39829,601.0554 588.83239,593.0359 603.91009,595.7333 L 603.91009,595.7333 z "
         style="font-size:12px;fill:#00be7e;fill-opacity:1;fill-rule:evenodd;stroke:none;stroke-width:0.375;stroke-linecap:round;stroke-linejoin:bevel"
         inkscape:export-filename="Z:\projects\ajug-conference\2006\img\text2285.png"
         inkscape:export-xdpi="36.84"
         inkscape:export-ydpi="36.84" />
      <path
         sodipodi:nodetypes="cccccsc"
         id="path2283"
         d="M 544.49789,594.6196 C 540.97099,598.2376 538.62969,600.776 536.34309,603.5201 C 531.63539,608.6867 528.06039,615.8733 528.54919,620.3451 C 529.45059,623.9645 542.81469,626.3867 544.99829,619.7342 C 546.38639,612.494 556.15999,604.0465 559.18989,600.5789 C 561.28599,598.2215 559.83729,596.0446 554.23369,594.5351 C 550.06999,593.247 546.01859,592.6303 544.49789,594.6196 L 544.49789,594.6196 z "
         style="fill:#906000;fill-opacity:1;fill-rule:evenodd;stroke:none;stroke-width:1pt;stroke-linecap:butt;stroke-linejoin:miter;stroke-opacity:1"
         inkscape:export-filename="Z:\projects\ajug-conference\2006\img\text2285.png"
         inkscape:export-xdpi="36.84"
         inkscape:export-ydpi="36.84" />
      <text
         xml:space="preserve"
         sodipodi:linespacing="100%"
         id="text2285"
         y="576.0462"
         x="209.4794"
         style="font-size:93.89160919px;font-style:normal;font-weight:normal;line-height:100%;writing-mode:lr-tb;text-anchor:start;fill:#ffffff;fill-opacity:1;stroke:none;stroke-width:1pt;stroke-linecap:butt;stroke-linejoin:miter;stroke-opacity:1;font-family:Blue Highway Condensed"
         inkscape:export-xdpi="36.84"
         inkscape:export-ydpi="36.84"><tspan
           id="tspan2287"
           sodipodi:role="line"
           y="576.0462"
           x="209.4794">Java DevCon 2006</tspan></text>
    </g>
  </g>
</svg>
