<?xml version="1.0" encoding="utf-8"?>
<!-- Generator: Adobe Illustrator 24.2.3, SVG Export Plug-In . SVG Version: 6.00 Build 0)  -->
<svg version="1.1" id="Layer_1" xmlns="http://www.w3.org/2000/svg" xmlns:xlink="http://www.w3.org/1999/xlink" x="0px" y="0px"
	 viewBox="0 0 453 59.9" style="enable-background:new 0 0 453 59.9;" xml:space="preserve">
<g>
	<g>
		<path d="M34.6,38.9c-1.2,3.4-2.1,4.7-4.4,5.9c-2.3,1.3-5.3,1.9-10.2,1.9c-7.3,0-12.9-1-15.6-2.7C1,41.8,0,38.7,0,30.4
			c0-8.9,1.2-12.5,4.8-14.7c3-1.8,7.6-2.7,14.1-2.7c4.3,0,7.6,0.4,10.1,1.3c2.2,0.8,3.3,1.9,5.2,5V0H46v45.9H34.6V38.9z M14.1,23.3
			c-1.5,1.2-2.1,3-2.1,6.8c0,6.8,1.4,7.8,10.9,7.8c5.4,0,8.3-0.4,9.6-1.4c1.4-1.1,1.9-3,1.9-6.5c0-7.3-1.3-8.2-11.7-8.2
			C17.2,21.8,15.4,22.1,14.1,23.3z"/>
		<path d="M98.2,35.7c-0.1,4.8-1.4,7.3-4.9,8.9c-3,1.4-6.9,1.9-15.6,1.9c-5.3,0-10.3-0.3-13.2-0.8c-3.7-0.7-6.8-3-8.3-6.1
			c-1.1-2.4-1.5-4.9-1.5-9.3c0-9,1.9-13.4,6.9-15.4c3-1.2,6.6-1.7,15.2-1.7c5.6,0,10.1,0.3,12.7,0.8c3.7,0.8,6.8,3.5,7.8,7.2
			c0.6,2.1,0.8,3.9,0.8,7.4v3.5H66.8v1.5c0,2.3,0.8,3.9,2.3,4.8c1.1,0.6,4.1,0.9,8.6,0.9c7,0,8.5-0.7,8.8-3.6H98.2z M86.6,25.8
			c-0.1-4.5-1.7-5.4-10-5.4c-5.1,0-7.2,0.3-8.4,1.5c-1,0.8-1.4,2-1.4,3.4v0.6H86.6z"/>
		<path d="M102.6,13.8h13.4L126.3,37l10.3-23.2h13.3l-15.8,32.2h-15.6L102.6,13.8z"/>
		<path d="M201.5,0l-49.2,59.9h-10L191.8,0H201.5z"/>
	</g>
	<g>
		<path d="M202.1,13.8h11.6v7.4c1.6-6.3,5.1-8.2,14.8-8.2c7.4,0,11.6,1.3,14.3,4.5c2.1,2.5,3,5.6,3,11.3v17.1h-11.8V29.3
			c0-5.6-2-7.1-9.8-7.1c-7.9,0-10.2,2.1-10.2,9.2v14.5h-11.8V13.8z"/>
		<path d="M297.9,35.7c-0.1,4.8-1.4,7.3-4.9,8.9c-3,1.4-6.9,1.9-15.6,1.9c-5.3,0-10.3-0.3-13.2-0.8c-3.7-0.7-6.8-3-8.3-6.1
			c-1.1-2.4-1.5-4.9-1.5-9.3c0-9,1.9-13.4,6.9-15.4c3-1.2,6.6-1.7,15.2-1.7c5.6,0,10.1,0.3,12.7,0.8c3.7,0.8,6.8,3.5,7.8,7.2
			c0.6,2.1,0.8,3.9,0.8,7.4v3.5h-31.3v1.5c0,2.3,0.8,3.9,2.3,4.8c1.1,0.6,4.1,0.9,8.6,0.9c7,0,8.5-0.7,8.8-3.6H297.9z M286.4,25.8
			c-0.1-4.5-1.7-5.4-10-5.4c-5.1,0-7.2,0.3-8.4,1.5c-1,0.8-1.4,2-1.4,3.4v0.6H286.4z"/>
		<path d="M316.5,29.1l-13.2-15.3h15.6l6.5,9l7-9h15.2l-12.9,14.7l14.3,17.4h-15.2l-8.3-11.6l-8.3,11.6h-14.8L316.5,29.1z"/>
		<path d="M399.7,45.9h-11.6v-7.4c-1.6,6.3-5.1,8.2-14.8,8.2c-7.4,0-11.6-1.3-14.3-4.5c-2.1-2.5-3-5.6-3-11.3V13.8h11.8v16.6
			c0,5.8,1.9,7.1,9.9,7.1c7.8,0,10.1-2.1,10.1-9.2V13.8h11.8V45.9z"/>
		<path d="M420.8,36c0.1,2.8,1.9,3.4,10.8,3.4c7,0,9.3-0.8,9.3-3c0-1.6-1-2.4-3.4-2.5c-1.2-0.1-2.8-0.1-6.1-0.1h-5.9
			c-12.9,0-16.8-2.3-16.8-9.8c0-5.2,2.1-8.4,6.1-9.6c3.2-0.9,8.3-1.3,15.9-1.3c10.1,0,14.2,0.5,17.1,2.1c2.5,1.3,3.5,3.4,3.7,7.6
			h-12.5c-0.3-1.9-1.8-2.3-8.3-2.3c-7.4,0-9.8,0.7-9.8,2.7s1.4,2.4,7.8,2.4h8.3c12.6,0,16,2.2,16,10.1c0,5.4-2,8.4-6.4,9.7
			c-3.2,1-8.6,1.4-17.6,1.4c-10,0-13.3-0.4-16.3-2c-3-1.5-4.3-4.3-4.4-8.7H420.8z"/>
	</g>
</g>
</svg>
