<?xml version="1.0" encoding="utf-8"?>
<!-- Generator: Adobe Illustrator 24.2.3, SVG Export Plug-In . SVG Version: 6.00 Build 0)  -->
<svg version="1.1" id="Layer_1" xmlns="http://www.w3.org/2000/svg" xmlns:xlink="http://www.w3.org/1999/xlink" x="0px" y="0px"
	 viewBox="0 0 2000 264.5" style="enable-background:new 0 0 2000 264.5;" xml:space="preserve">
<style type="text/css">
	.st0{fill:#FFFFFF;}
</style>
<g>
	<g>
		<path class="st0" d="M152.8,171.7c-5.3,15-9.3,20.8-19.4,26c-10.2,5.7-23.4,8.4-45,8.4c-32.2,0-57-4.4-68.9-11.9
			c-15-9.7-19.4-23.4-19.4-60C0,94.9,5.3,79,21.2,69.3c13.2-7.9,33.6-11.9,62.3-11.9c19,0,33.6,1.8,44.6,5.7
			c9.7,3.5,14.6,8.4,23,22.1V0h52.1v202.6h-50.3V171.7z M62.3,102.9c-6.6,5.3-9.3,13.2-9.3,30c0,30,6.2,34.4,48.1,34.4
			c23.8,0,36.6-1.8,42.4-6.2c6.2-4.9,8.4-13.2,8.4-28.7c0-32.2-5.7-36.2-51.7-36.2C75.9,96.2,68,97.6,62.3,102.9z"/>
		<path class="st0" d="M433.6,157.6c-0.4,21.2-6.2,32.2-21.6,39.3c-13.2,6.2-30.5,8.4-68.9,8.4c-23.4,0-45.5-1.3-58.3-3.5
			c-16.3-3.1-30-13.2-36.6-26.9c-4.9-10.6-6.6-21.6-6.6-41.1c0-39.7,8.4-59.2,30.5-68c13.2-5.3,29.1-7.5,67.1-7.5
			c24.7,0,44.6,1.3,56.1,3.5c16.3,3.5,30,15.5,34.4,31.8c2.6,9.3,3.5,17.2,3.5,32.7v15.5H294.9v6.6c0,10.2,3.5,17.2,10.2,21.2
			c4.9,2.6,18.1,4,38,4c30.9,0,37.5-3.1,38.9-15.9C381.9,157.6,433.6,157.6,433.6,157.6z M382.3,113.9c-0.4-19.9-7.5-23.8-44.2-23.8
			c-22.5,0-31.8,1.3-37.1,6.6c-4.4,3.5-6.2,8.8-6.2,15v2.6h87.4C382.3,114.3,382.3,113.9,382.3,113.9z"/>
		<path class="st0" d="M453,60.9h59.2l45.5,102.4l45.5-102.4h58.7l-69.8,142.2h-68.9L453,60.9z"/>
		<path class="st0" d="M889.6,0L672.4,264.5h-44.2L846.8,0H889.6z"/>
	</g>
	<g>
		<path class="st0" d="M892.3,60.9h51.2v32.7c7.1-27.8,22.5-36.2,65.3-36.2c32.7,0,51.2,5.7,63.1,19.9c9.3,11,13.2,24.7,13.2,49.9
			v75.5h-52.1v-73.3c0-24.7-8.8-31.3-43.3-31.3c-34.9,0-45,9.3-45,40.6v64h-52.1V60.9H892.3z"/>
		<path class="st0" d="M1315.2,157.6c-0.4,21.2-6.2,32.2-21.6,39.3c-13.2,6.2-30.5,8.4-68.9,8.4c-23.4,0-45.5-1.3-58.3-3.5
			c-16.3-3.1-30-13.2-36.6-26.9c-4.9-10.6-6.6-21.6-6.6-41.1c0-39.7,8.4-59.2,30.5-68c13.2-5.3,29.1-7.5,67.1-7.5
			c24.7,0,44.6,1.3,56.1,3.5c16.3,3.5,30,15.5,34.4,31.8c2.6,9.3,3.5,17.2,3.5,32.7v15.5h-138.2v6.6c0,10.2,3.5,17.2,10.2,21.2
			c4.9,2.6,18.1,4,38,4c30.9,0,37.5-3.1,38.9-15.9C1263.6,157.6,1315.2,157.6,1315.2,157.6z M1264.5,113.9
			c-0.4-19.9-7.5-23.8-44.2-23.8c-22.5,0-31.8,1.3-37.1,6.6c-4.4,3.5-6.2,8.8-6.2,15v2.6h87.4V113.9z"/>
		<path class="st0" d="M1397.4,128.5l-58.3-67.5h68.9l28.7,39.7l30.9-39.7h67.1l-57,64.9l63.1,76.8h-67.1l-36.6-51.2l-36.6,51.2
			h-65.3L1397.4,128.5z"/>
		<path class="st0" d="M1764.7,202.6h-51.2V170c-7.1,27.8-22.5,36.2-65.3,36.2c-32.7,0-51.2-5.7-63.1-19.9
			c-9.3-11-13.2-24.7-13.2-49.9V60.9h52.1v73.3c0,25.6,8.4,31.3,43.7,31.3c34.4,0,44.6-9.3,44.6-40.6v-64h52.1v141.7
			C1764.2,202.6,1764.7,202.6,1764.7,202.6z"/>
		<path class="st0" d="M1857.8,158.9c0.4,12.4,8.4,15,47.7,15c30.9,0,41.1-3.5,41.1-13.2c0-7.1-4.4-10.6-15-11
			c-5.3-0.4-12.4-0.4-26.9-0.4h-26c-57,0-74.2-10.2-74.2-43.3c0-23,9.3-37.1,26.9-42.4c14.1-4,36.6-5.7,70.2-5.7
			c44.6,0,62.7,2.2,75.5,9.3c11,5.7,15.5,15,16.3,33.6h-55.2c-1.3-8.4-7.9-10.2-36.6-10.2c-32.7,0-43.3,3.1-43.3,11.9
			s6.2,10.6,34.4,10.6h36.6c55.6,0,70.6,9.7,70.6,44.6c0,23.8-8.8,37.1-28.3,42.8c-14.1,4.4-38,6.2-77.7,6.2
			c-44.2,0-58.7-1.8-72-8.8c-13.2-6.6-19-19-19.4-38.4h55.2L1857.8,158.9L1857.8,158.9z"/>
	</g>
</g>
</svg>
