<?xml version="1.0" encoding="utf-8"?>
<!-- Generator: Adobe Illustrator 24.2.3, SVG Export Plug-In . SVG Version: 6.00 Build 0)  -->
<svg version="1.1" id="Layer_1" xmlns="http://www.w3.org/2000/svg" xmlns:xlink="http://www.w3.org/1999/xlink" x="0px" y="0px"
	 viewBox="0 0 1900 602.5" style="enable-background:new 0 0 1900 602.5;" xml:space="preserve">
<style type="text/css">
	.st0{fill:#12100B;}
	.st1{font-family:'EurostileExt-Bla';}
	.st2{font-size:45.726px;}
	.st3{fill:#1D1D1B;}
</style>
<g>
	<g>
		<g>
			<path class="st0" d="M295.7,329.2c-4.1,11.8-7.5,16.4-15.5,20.8c-8,4.6-18.6,6.5-35.8,6.5c-25.6,0-45.2-3.4-54.6-9.4
				c-12.1-7.7-15.5-18.6-15.5-47.8c0-31.2,4.1-44,16.7-51.5c10.6-6.3,26.8-9.4,49.5-9.4c15,0,26.8,1.5,35.3,4.6
				c7.7,2.9,11.6,6.5,18.4,17.6v-67.9h41.6v161.2h-40.1V329.2z M223.7,274.3c-5.3,4.4-7.2,10.6-7.2,23.9c0,23.9,4.8,27.3,38.2,27.3
				c18.8,0,29.2-1.5,33.6-4.8c4.8-3.9,6.8-10.4,6.8-22.7c0-25.6-4.6-28.8-41.1-28.8C234.5,269.3,228.3,270.2,223.7,274.3"/>
			<polygon class="st0" points="534.4,241 581.5,241 617.5,322.4 653.8,241 700.4,241 645.1,353.8 590.2,353.8 			"/>
			<polygon class="st0" points="858.1,192.7 685.3,402.9 650.3,402.9 824,192.7 			"/>
			<g>
				<path class="st0" d="M845.4,241.3H886v26.1c5.6-22,17.9-28.8,52-28.8c25.9,0,40.6,4.6,50.3,15.9c7.5,8.7,10.4,19.6,10.4,39.6
					V354H957v-58c0-19.8-7-24.9-34.3-24.9c-27.8,0-35.8,7.3-35.8,32.1v51h-41.6L845.4,241.3L845.4,241.3z"/>
				<polygon class="st0" points="1246.7,295 1200.3,241.3 1255.2,241.3 1278.1,273 1302.5,241.3 1355.9,241.3 1310.5,293.1 
					1360.5,354.2 1307.4,354.2 1278.1,313.6 1249.1,354.2 1197.2,354.2 				"/>
				<path class="st0" d="M1538.6,354.2H1498v-26.1c-5.6,22-17.9,28.8-52,28.8c-26.1,0-40.6-4.6-50.3-16
					c-7.5-8.7-10.4-19.6-10.4-39.6v-59.9h41.6v58.2c0,20.3,6.5,24.9,34.8,24.9c27.3,0,35.3-7.3,35.3-32.1v-51h41.6V354.2z"/>
				<path class="st0" d="M1612.5,319.4c0.2,9.9,6.8,11.8,37.9,11.8c24.7,0,32.6-2.7,32.6-10.4c0-5.6-3.6-8.5-12.1-8.9
					c-4.1-0.5-9.9-0.5-21.5-0.5h-20.8c-45.2,0-59-8-59-34.6c0-18.1,7.2-29.5,21.3-33.6c11.1-3.1,29.2-4.6,55.8-4.6
					c35.5,0,49.8,1.7,59.9,7.3c8.7,4.6,12.3,12.1,13,26.6h-43.7c-1-6.5-6.3-8-29-8c-25.9,0-34.3,2.4-34.3,9.4s5.1,8.5,27.3,8.5h29.2
					c44.2,0,56.3,7.7,56.3,35.5c0,18.8-7,29.5-22.5,34.1c-11.4,3.4-30.2,4.8-61.9,4.8c-35,0-46.6-1.4-57.3-7
					c-10.4-5.3-15.2-15-15.5-30.4L1612.5,319.4L1612.5,319.4z"/>
			</g>
		</g>
	</g>
</g>
<text transform="matrix(1 0 0 1 186.1089 454.6619)" class="st1 st2">Enterprise, Java, AI and Developer Tools  Conference</text>
<g>
	<path class="st3" d="M523.2,316.8c-0.2,16.7-5.1,25.6-17.2,31.2c-10.6,5.1-24.2,6.8-54.6,6.8c-18.6,0-36-1.2-46.2-2.9
		c-13.1-2.4-23.9-10.6-29-21.3c-3.9-8.5-5.3-17.2-5.3-32.6c0-31.7,6.8-46.9,24.2-54.2c10.6-4.4,23.2-5.8,53.4-5.8
		c19.6,0,35.5,1,44.7,2.9c13.1,2.7,23.9,12.3,27.3,25.1c1.9,7.3,2.7,13.5,2.7,26.1v12.3h-110v5.3c0,8.2,2.9,13.8,8,16.7
		c3.9,1.9,14.3,3.1,30.2,3.1c24.4,0,30-2.4,30.9-12.8H523.2z M482.8,282.3c-0.2-16-6-19.1-35.1-19.1c-17.9,0-25.1,1.2-29.5,5.3
		c-3.4,2.9-5.1,7-5.1,11.8v1.9H482.8z"/>
</g>
<g>
	<path class="st3" d="M1181.9,317.4c-0.2,16.7-5.1,25.6-17.2,31.2c-10.6,5.1-24.2,6.8-54.6,6.8c-18.6,0-36-1.2-46.2-2.9
		c-13.1-2.4-23.9-10.6-29-21.3c-3.9-8.5-5.3-17.2-5.3-32.6c0-31.7,6.8-46.9,24.2-54.2c10.6-4.4,23.2-5.8,53.4-5.8
		c19.6,0,35.5,1,44.7,2.9c13.1,2.7,23.9,12.3,27.3,25.1c1.9,7.3,2.7,13.5,2.7,26.1v12.3h-110v5.3c0,8.2,2.9,13.8,8,16.7
		c3.9,1.9,14.3,3.1,30.2,3.1c24.4,0,30-2.4,30.9-12.8H1181.9z M1141.6,282.9c-0.2-16-6-19.1-35.1-19.1c-17.9,0-25.1,1.2-29.5,5.3
		c-3.4,2.9-5.1,7-5.1,11.8v1.9H1141.6z"/>
</g>
</svg>
